<svg width="479" height="202" viewBox="0 0 479 202" fill="none" xmlns="http://www.w3.org/2000/svg">
<mask id="mask0" mask-type="alpha" maskUnits="userSpaceOnUse" x="0" y="0" width="479" height="202">
<rect width="479" height="202" fill="#C4C4C4"/>
</mask>
<g mask="url(#mask0)">
<path fill-rule="evenodd" clip-rule="evenodd" d="M125.297 13.6093C125.297 -2.90805 111.907 -16.303 95.3846 -16.303C78.8617 -16.303 65.4723 -2.90805 65.4723 13.6093C65.4723 30.1267 78.8617 43.5216 95.3846 43.5216C111.907 43.5216 125.297 30.1267 125.297 13.6093ZM95.3846 -12.1627C109.612 -12.1627 121.151 -0.626912 121.151 13.6093C121.151 27.8455 109.612 39.3813 95.3846 39.3813C81.1568 39.3813 69.618 27.8455 69.618 13.6093C69.618 -0.626912 81.1568 -12.1627 95.3846 -12.1627Z" fill="#E2587C"/>
<path fill-rule="evenodd" clip-rule="evenodd" d="M166.555 48.1631C166.555 38.194 158.474 30.1125 148.505 30.1125C138.536 30.1125 130.454 38.194 130.454 48.1631C130.454 58.1321 138.536 66.2136 148.505 66.2136C158.474 66.2136 166.555 58.1321 166.555 48.1631ZM148.505 34.2781C156.173 34.2781 162.39 40.4946 162.39 48.1631C162.39 55.8316 156.173 62.0481 148.505 62.0481C140.836 62.0481 134.62 55.8316 134.62 48.1631C134.62 40.4946 140.836 34.2781 148.505 34.2781Z" fill="#A7CECD"/>
<path fill-rule="evenodd" clip-rule="evenodd" d="M211.133 35.0364L228.369 -19.3348L173.927 -36.593L156.691 17.7782L211.133 35.0364ZM208.44 29.8441L161.883 15.0854L176.62 -31.4007L223.176 -16.6421L208.44 29.8441Z" fill="#404873"/>
<path fill-rule="evenodd" clip-rule="evenodd" d="M8.375 -2.54932L-15.3894 -15.4318L-29.3163 10.2592L-5.55185 23.1416L8.375 -2.54932ZM2.76801 -0.884378L-7.21679 17.5346L-23.7093 8.59421L-13.7245 -9.82481L2.76801 -0.884378Z" fill="#BED9D5"/>
<path fill-rule="evenodd" clip-rule="evenodd" d="M-22.1309 -34.751L-49.7145 15.6421L0.642342 43.3283L28.2259 -7.06475L-22.1309 -34.751ZM-20.4925 -29.1305L22.6159 -5.42942L-0.996048 37.7078L-44.1044 14.0068L-20.4925 -29.1305Z" fill="#E2587C"/>
<path fill-rule="evenodd" clip-rule="evenodd" d="M13.2969 71.4876L75.9888 48.7209L32.7701 7.69577L13.2969 71.4876ZM34.7731 15.2996L68.291 47.1162L19.6709 64.7728L34.7731 15.2996Z" fill="#FFA531"/>
<path fill-rule="evenodd" clip-rule="evenodd" d="M97.4079 -25.9238L164.42 -27.6056L136.272 -80.6441L97.4079 -25.9238ZM135.762 -72.7831L157.632 -31.5724L105.564 -30.2656L135.762 -72.7831Z" fill="#FFA531"/>
<path fill-rule="evenodd" clip-rule="evenodd" d="M255.123 -45.8625L239.092 19.0992L297.411 5.96653L255.123 -45.8625ZM257.154 -36.831L289.979 3.40057L244.71 13.5946L257.154 -36.831Z" fill="#A7CECD"/>
<path fill-rule="evenodd" clip-rule="evenodd" d="M289.299 28.0499C289.299 41.152 299.689 51.7734 312.507 51.7734C325.324 51.7734 335.714 41.152 335.714 28.0499C335.714 14.9477 325.324 4.32635 312.507 4.32634C299.689 4.32634 289.299 14.9477 289.299 28.0499ZM312.507 47.5869C301.951 47.5869 293.394 38.8399 293.394 28.0499C293.394 17.2599 301.951 8.51285 312.507 8.51285C323.062 8.51285 331.619 17.2599 331.619 28.0499C331.619 38.8399 323.062 47.5869 312.507 47.5869Z" fill="#E2587C"/>
<path fill-rule="evenodd" clip-rule="evenodd" d="M360.404 13.615L393.328 -33.4947L346.305 -66.4828L313.381 -19.3731L360.404 13.615ZM359.387 7.84974L319.136 -20.3879L347.322 -60.7176L387.573 -32.48L359.387 7.84974Z" fill="#404873"/>
<path fill-rule="evenodd" clip-rule="evenodd" d="M434.767 30.8284L482.92 -0.502681L451.665 -48.7246L403.511 -17.3936L434.767 30.8284ZM435.984 25.1022L409.227 -16.1786L450.447 -42.9985L477.204 -1.71768L435.984 25.1022Z" fill="#FFA531"/>
<path fill-rule="evenodd" clip-rule="evenodd" d="M398.495 85.0317L414.526 20.07L356.207 33.2027L398.495 85.0317ZM396.463 76.0001L363.638 35.7686L408.907 25.5746L396.463 76.0001Z" fill="#A7CECD"/>
<path fill-rule="evenodd" clip-rule="evenodd" d="M394.007 64.3464L402.4 32.3859L373.506 38.4426L394.007 64.3464ZM392.11 55.2856L380.898 41.1187L396.701 37.8063L392.11 55.2856Z" fill="#404873"/>
</g>
</svg>
