<svg width="640" height="640" viewBox="0 0 640 640" fill="none" xmlns="http://www.w3.org/2000/svg">
<rect width="640" height="640" fill="#F7F7F7"/>
<path fill-rule="evenodd" clip-rule="evenodd" d="M320.038 318.019C398.743 318.019 462.547 254.215 462.547 175.509C462.547 96.8036 398.743 33 320.038 33C241.332 33 177.528 96.8036 177.528 175.509C177.528 254.215 241.332 318.019 320.038 318.019ZM320.038 262.644C368.161 262.644 407.172 223.632 407.172 175.509C407.172 127.387 368.161 88.3752 320.038 88.3752C271.915 88.3752 232.903 127.387 232.903 175.509C232.903 223.632 271.915 262.644 320.038 262.644Z" fill="#18272B"/>
<path fill-rule="evenodd" clip-rule="evenodd" d="M304.565 148.636V201.568H309.879C325.82 201.568 335.51 194.49 335.51 175.102C335.51 155.714 325.82 148.636 309.879 148.636H304.565Z" fill="#FFA531"/>
<path fill-rule="evenodd" clip-rule="evenodd" d="M450.547 607.076L450.547 346L189.471 346L189.471 607.076L450.547 607.076ZM386.126 542.089L386.126 410.421L254.458 410.421L254.458 542.089L386.126 542.089Z" fill="#18272B"/>
</svg>
