<svg width="399" height="26" viewBox="0 0 399 26" fill="none" xmlns="http://www.w3.org/2000/svg">
<path fill-rule="evenodd" clip-rule="evenodd" d="M0 25.5502V0.449827H11.7766C21.7867 0.449827 26.5879 5.03806 26.5879 13C26.5879 20.9619 21.7867 25.5502 11.7766 25.5502H0ZM10.7801 9.13149V16.8685H11.5501C13.8601 16.8685 15.2643 15.8339 15.2643 13C15.2643 10.1661 13.8601 9.13149 11.5501 9.13149H10.7801ZM27.4938 25.5502H46.4269V18.5779H42.5316V7.42215H46.4269V0.449827H27.4938V7.42215H31.3891V18.5779H27.4938V25.5502ZM59.7889 26C69.1195 26 73.1508 22.1315 73.1508 17.0484C73.1508 12.6851 70.2066 10.346 65.7224 9.53633L60.0153 8.50173C59.0188 8.3218 58.7018 7.96194 58.7018 7.51211C58.7018 6.92734 59.2 6.56747 60.1059 6.56747C61.1024 6.56747 61.7818 6.97232 61.7818 7.91695H72.6978C72.1996 3.46367 68.9384 0 60.5136 0C51.5905 0 47.4234 3.86851 47.4234 9.04152C47.4234 13.1349 50.0052 15.699 54.9423 16.5986L60.4683 17.5882C61.4648 17.7682 61.8724 17.9481 61.8724 18.4429C61.8724 18.9377 61.4195 19.3875 60.0153 19.3875C58.5659 19.3875 57.8865 18.9377 57.8865 17.9031H46.9705C47.514 22.1315 50.4582 26 59.7889 26ZM74.5096 25.5502V0.449827H87.4638C95.798 0.449827 99.6934 4.18339 99.6934 10.6159C99.6934 17.0484 95.798 20.782 87.4638 20.782H85.5615V25.5502H74.5096ZM85.5615 8.63668V12.5952H86.4674C87.7356 12.5952 88.5962 12.0104 88.5962 10.6159C88.5962 9.22145 87.7356 8.63668 86.4674 8.63668H85.5615ZM101.324 25.5502H122.477V17.4533H112.331V15.8789H119.804V10.1211H112.331V8.54671H122.477V0.449827H101.324V25.5502ZM124.787 25.5502H135.023V16.0138H135.476L140.096 25.5502H152.326V0.449827H142.089V9.98616H141.636L137.016 0.449827H124.787V25.5502ZM166.503 26C175.834 26 179.865 22.1315 179.865 17.0484C179.865 12.6851 176.921 10.346 172.436 9.53633L166.729 8.50173C165.733 8.3218 165.416 7.96194 165.416 7.51211C165.416 6.92734 165.914 6.56747 166.82 6.56747C167.816 6.56747 168.496 6.97232 168.496 7.91695H179.412C178.914 3.46367 175.652 0 167.228 0C158.305 0 154.137 3.86851 154.137 9.04152C154.137 13.1349 156.719 15.699 161.656 16.5986L167.182 17.5882C168.179 17.7682 168.586 17.9481 168.586 18.4429C168.586 18.9377 168.133 19.3875 166.729 19.3875C165.28 19.3875 164.601 18.9377 164.601 17.9031H153.685C154.228 22.1315 157.172 26 166.503 26ZM181.224 25.5502H202.376V17.4533H192.23V15.8789H199.704V10.1211H192.23V8.54671H202.376V0.449827H181.224V25.5502ZM204.686 25.5502V0.449827H217.64C226.337 0.449827 229.87 4.31834 229.87 10.391C229.87 13.8097 228.738 15.7889 226.79 17.5433L230.459 25.5502H218.501L216.689 20.4221H215.738V25.5502H204.686ZM215.738 8.50173V12.3702H216.644C217.912 12.3702 218.773 11.7855 218.773 10.436C218.773 9.08651 217.912 8.50173 216.644 8.50173H215.738ZM244.228 25.5502V0.449827H256.005C266.015 0.449827 270.816 5.03806 270.816 13C270.816 20.9619 266.015 25.5502 256.005 25.5502H244.228ZM255.009 9.13149V16.8685H255.779C258.089 16.8685 259.493 15.8339 259.493 13C259.493 10.1661 258.089 9.13149 255.779 9.13149H255.009ZM272.538 25.5502H293.69V17.4533H283.544V15.8789H291.018V10.1211H283.544V8.54671H293.69V0.449827H272.538V25.5502ZM307.46 26C316.79 26 320.822 22.1315 320.822 17.0484C320.822 12.6851 317.877 10.346 313.393 9.53633L307.686 8.50173C306.69 8.3218 306.373 7.96194 306.373 7.51211C306.373 6.92734 306.871 6.56747 307.777 6.56747C308.773 6.56747 309.453 6.97232 309.453 7.91695H320.369C319.87 3.46367 316.609 0 308.184 0C299.261 0 295.094 3.86851 295.094 9.04152C295.094 13.1349 297.676 15.699 302.613 16.5986L308.139 17.5882C309.136 17.7682 309.543 17.9481 309.543 18.4429C309.543 18.9377 309.09 19.3875 307.686 19.3875C306.237 19.3875 305.557 18.9377 305.557 17.9031H294.641C295.185 22.1315 298.129 26 307.46 26ZM321.365 25.5502H340.298V18.5779H336.403V7.42215H340.298V0.449827H321.365V7.42215H325.26V18.5779H321.365V25.5502ZM353.751 26C357.238 26 360.183 24.9654 361.768 23.301V25.5502H369.151V13.4948H357.963V15.7889C357.42 16.3287 356.514 16.6436 355.562 16.6436C353.705 16.6436 352.664 15.4291 352.664 13C352.664 10.5709 353.705 9.3564 355.472 9.3564C357.148 9.3564 357.782 10.436 357.963 11.5156H369.196C368.698 3.86851 363.534 0 355.472 0C346.051 0 341.204 5.26298 341.204 13.1349C341.204 21.2768 346.368 26 353.751 26ZM371.461 25.5502H381.697V16.0138H382.15L386.77 25.5502H399V0.449827H388.763V9.98616H388.31L383.69 0.449827H371.461V25.5502Z" fill="white" fill-opacity="0.9"/>
<path fill-rule="evenodd" clip-rule="evenodd" d="M237 26C239.761 26 242 23.7614 242 21C242 18.2386 239.761 16 237 16C234.239 16 232 18.2386 232 21C232 23.7614 234.239 26 237 26Z" fill="#FFA531"/>
</svg>
