<svg width="526" height="469" viewBox="0 0 526 469" fill="none" xmlns="http://www.w3.org/2000/svg">
<path fill-rule="evenodd" clip-rule="evenodd" d="M311.292 394.697C289.039 394.697 271 376.632 271 354.348C271 332.065 289.039 314 311.292 314C333.544 314 351.584 332.065 351.584 354.348C351.584 376.632 333.544 394.697 311.292 394.697Z" stroke="#18272B" stroke-width="15" stroke-linecap="round"/>
<path fill-rule="evenodd" clip-rule="evenodd" d="M448.708 295.972C426.455 295.972 408.416 277.907 408.416 255.624C408.416 233.34 426.455 215.275 448.708 215.275C470.96 215.275 489 233.34 489 255.624C489 277.907 470.96 295.972 448.708 295.972Z" stroke="#18272B" stroke-width="15" stroke-linecap="round"/>
<path fill-rule="evenodd" clip-rule="evenodd" d="M344.49 120.697C322.238 120.697 304.198 102.632 304.198 80.3483C304.198 58.0646 322.238 40 344.49 40C366.743 40 384.782 58.0646 384.782 80.3483C384.782 102.632 366.743 120.697 344.49 120.697Z" stroke="#18272B" stroke-width="15" stroke-linecap="round"/>
<path fill-rule="evenodd" clip-rule="evenodd" d="M82.2919 233.697C60.0393 233.697 42 215.632 42 193.348C42 171.065 60.0393 153 82.2919 153C104.544 153 122.584 171.065 122.584 193.348C122.584 215.632 104.544 233.697 82.2919 233.697Z" stroke="#18272B" stroke-width="15" stroke-linecap="round"/>
<path fill-rule="evenodd" clip-rule="evenodd" d="M191.292 223.697C169.039 223.697 151 205.632 151 183.348C151 161.065 169.039 143 191.292 143C213.544 143 231.584 161.065 231.584 183.348C231.584 205.632 213.544 223.697 191.292 223.697Z" stroke="#FFA531" stroke-width="15" stroke-linecap="round"/>
<path fill-rule="evenodd" clip-rule="evenodd" d="M260.292 304.697C238.039 304.697 220 286.632 220 264.348C220 242.065 238.039 224 260.292 224C282.544 224 300.584 242.065 300.584 264.348C300.584 286.632 282.544 304.697 260.292 304.697Z" stroke="#18272B" stroke-width="15" stroke-linecap="round"/>
<path fill-rule="evenodd" clip-rule="evenodd" d="M445.746 313H369V389.854H445.746V313Z" stroke="#18272B" stroke-width="15" stroke-linecap="round"/>
<path fill-rule="evenodd" clip-rule="evenodd" d="M303.719 126.956L259.392 190.382L322.697 234.793L367.024 171.367L303.719 126.956Z" stroke="#18272B" stroke-width="15"/>
<path fill-rule="evenodd" clip-rule="evenodd" d="M137.423 220L93.0958 283.426L156.401 327.837L200.728 264.411L137.423 220Z" stroke="#18272B" stroke-width="15"/>
<path fill-rule="evenodd" clip-rule="evenodd" d="M156.01 41.314L91.1817 83.4947L133.262 148.417L198.09 106.236L156.01 41.314Z" stroke="#18272B" stroke-width="15"/>
<path fill-rule="evenodd" clip-rule="evenodd" d="M472.368 186.364L452.366 111.574L377.718 131.614L397.72 206.404L472.368 186.364Z" stroke="#18272B" stroke-width="15" stroke-linecap="round"/>
<path fill-rule="evenodd" clip-rule="evenodd" d="M209.373 299L171 375.854H247.746L209.373 299Z" stroke="#18272B" stroke-width="15" stroke-linecap="round"/>
<path fill-rule="evenodd" clip-rule="evenodd" d="M256.855 146.734L284.271 65.0001L208.002 75.7328L256.855 146.734Z" stroke="#18272B" stroke-width="15" stroke-linecap="round"/>
<path fill-rule="evenodd" clip-rule="evenodd" d="M81.3389 400.038L153.263 352.51L86.5542 314.012L81.3389 400.038Z" stroke="#18272B" stroke-width="15" stroke-linecap="round"/>
<path fill-rule="evenodd" clip-rule="evenodd" d="M310.146 294.562L396.522 292.395L360.241 224.029L310.146 294.562Z" stroke="#FFA531" stroke-width="15"/>
</svg>
